PathFileType	4	(X/Y/Z)	D:\Share\Shared_Data\Ergonomics\Sit To Stand Pertubation\S3\Perturbed.trc
DataRate	CameraRate	NumFrames	NumMarkers	Units	OrigDataRate	OrigDataStartFrame	OrigNumFrames	
100	100	9	18	m	100	8408	221
Frame#	Time	R_ASIS			R_Pelvis			V_Sacral			L_Pelvis			L_ASIS			Clavical			R_Acromium			L_Acromium			Sternum			Torso			R_Thigh_Med			R_Thigh_Lat			R_Thigh			R_Shank_Med			R_Shank_Lat			R_Shank			R_Heel			R_Toe			
		X1	Y1	Z1	X2	Y2	Z2	X3	Y3	Z3	X4	Y4	Z4	X5	Y5	Z5	X6	Y6	Z6	X7	Y7	Z7	X8	Y8	Z8	X9	Y9	Z9	X10	Y10	Z10	X11	Y11	Z11	X12	Y12	Z12	X13	Y13	Z13	X14	Y14	Z14	X15	Y15	Z15	X16	Y16	Z16	X17	Y17	Z17	X18	Y18	Z18	

8408	84.07	-0.010421471	0.64405212	0.15180727	-0.12356086	0.63170154	0.20400427	-0.22812267	0.62902936	0.013543452	-0.10798783	0.64758398	-0.18541055	0.0008896988	0.64407837	-0.13196068	-0.018125492	1.0406332	-0.0010450559	-0.067971321	1.1017224	0.1718042	-0.057893288	1.0996227	-0.15477377	0.0053140655	0.96560022	0.0070492802	-0.011196385	1.0284852	-0.061782944	0.33079373	0.47269547	0.076133316	0.31772598	0.4536153	0.19366693	0.14870714	0.58019098	0.11381782	0.2944653	0.10680222	0.097403191	0.2830874	0.094006721	0.17816202	0.28368622	0.27272937	0.2022094	0.22426561	0.057757683	0.13910426	0.44051791	0.056623501	0.11853125
8409	84.08	-0.01033802	0.64404858	0.15177193	-0.12345691	0.63169641	0.20400723	-0.22811682	0.62902924	0.013616735	-0.10814327	0.6475647	-0.18538437	0.00075451618	0.64407214	-0.13203166	-0.018092871	1.0406207	-0.0011108991	-0.067813278	1.1017379	0.17177811	-0.058056522	1.0995836	-0.15484818	0.0053470888	0.96559637	0.0069625301	-0.011245179	1.0283811	-0.061891838	0.33082266	0.47267877	0.075991859	0.31778934	0.45362985	0.19355064	0.14874628	0.58019141	0.11370982	0.29446594	0.10679554	0.097394356	0.28303381	0.094017738	0.17817137	0.2837233	0.27275455	0.20217119	0.22427222	0.057760815	0.13910571	0.44052237	0.056618507	0.11852871
8410	84.09	-0.010250679	0.64404913	0.15172699	-0.12334426	0.63168774	0.20400786	-0.22811511	0.62902618	0.01369397	-0.10831447	0.64754315	-0.18536147	0.00060856926	0.64406409	-0.13211575	-0.018066082	1.0406047	-0.0011824491	-0.067644745	1.101754	0.17174786	-0.058226482	1.0995458	-0.15491322	0.0053722224	0.96558984	0.0068671112	-0.011297392	1.0282623	-0.062009243	0.33085471	0.47265836	0.075807503	0.31785898	0.45365091	0.19339331	0.14879266	0.58019043	0.11357761	0.29446637	0.10678611	0.097380074	0.2830022	0.094024933	0.1781718	0.28376544	0.27278339	0.2021147	0.22427641	0.057764229	0.13910558	0.44052783	0.05661412	0.11852293
8411	84.1	-0.010159703	0.6440531	0.15167427	-0.12322458	0.63167542	0.20400746	-0.22811746	0.62902118	0.013775498	-0.10849998	0.64752063	-0.18534613	0.00045554927	0.64405414	-0.13221219	-0.018044718	1.0405845	-0.0012593347	-0.067470161	1.1017687	0.17171217	-0.058395966	1.0995077	-0.15496754	0.0053908658	0.96557892	0.0067645888	-0.01135142	1.0281316	-0.062132362	0.33089093	0.47263275	0.075585976	0.31793463	0.45367822	0.19319862	0.14884596	0.58018646	0.11342342	0.29446701	0.10677398	0.097359612	0.28300287	0.094018799	0.17815244	0.28381238	0.27281668	0.20204118	0.22427884	0.057767738	0.13910406	0.44053409	0.056610302	0.11851397
8412	84.11	-0.010065124	0.64405988	0.15161505	-0.12309919	0.63165961	0.20400725	-0.22812383	0.62901508	0.013862087	-0.10869924	0.64749872	-0.18534204	0.0002984181	0.64404309	-0.13231956	-0.018027658	1.0405593	-0.0013414947	-0.067294128	1.1017802	0.17166995	-0.058558304	1.0994686	-0.15501146	0.0054053626	0.9655625	0.0066567998	-0.011406496	1.027996	-0.062257816	0.33093256	0.47260007	0.075334061	0.31801697	0.45370956	0.19297174	0.14890535	0.58017877	0.11324957	0.29446741	0.10675969	0.097332489	0.28303253	0.093999611	0.17811337	0.28386295	0.27285516	0.20195192	0.22428062	0.057770969	0.13910191	0.44054065	0.056606945	0.11850226
8413	84.12	-0.0099669819	0.64406879	0.15154991	-0.12296931	0.63164069	0.2040083	-0.22813379	0.62900867	0.013954696	-0.1089116	0.64747894	-0.18535103	0.00013917673	0.64403302	-0.13243587	-0.01801321	1.0405293	-0.0014288456	-0.067120712	1.1017878	0.17162073	-0.058706215	1.0994276	-0.15504475	0.0054184175	0.9655401	0.0065456133	-0.011462728	1.0278646	-0.062382133	0.33098071	0.47255869	0.075058098	0.31810724	0.45374197	0.19271826	0.14897002	0.58016675	0.11305874	0.29446664	0.10674401	0.097298386	0.28307919	0.093974449	0.17806284	0.28391559	0.27289865	0.20184825	0.22428235	0.057773506	0.1390995	0.44054684	0.05660397	0.11848826
8414	84.13	-0.0098656235	0.64407922	0.15147868	-0.12283611	0.63161945	0.20401096	-0.22814676	0.62900201	0.014054203	-0.10913534	0.64746173	-0.18537241	-2.1444906e-05	0.64402643	-0.1325587	-0.017999262	1.0404948	-0.0015207555	-0.06695285	1.101791	0.1715645	-0.058832397	1.099384	-0.15506648	0.0054324183	0.9655116	0.0064327464	-0.011520222	1.0277457	-0.062502914	0.33103516	0.47250885	0.074762589	0.31820654	0.45377216	0.19244348	0.14903931	0.58015063	0.11285403	0.2944632	0.10672774	0.097257072	0.28313034	0.093951431	0.17801073	0.28396872	0.27294565	0.2017317	0.22428398	0.057775124	0.139097	0.44055243	0.056601311	0.11847242
8415	84.14	-0.0097619047	0.64409076	0.15140071	-0.12270049	0.63159717	0.2040148	-0.22816228	0.62899487	0.01416109	-0.10936742	0.64744666	-0.18540311	-0.00018394221	0.64402594	-0.13268568	-0.017983408	1.0404572	-0.0016157999	-0.06679174	1.1017902	0.17150157	-0.058931755	1.099338	-0.15507649	0.0054489102	0.9654776	0.0063197594	-0.011577991	1.0276429	-0.062619625	0.33109418	0.4724527	0.074449959	0.31831537	0.45379846	0.19215155	0.14911287	0.58013098	0.11263826	0.29445569	0.10671138	0.097208618	0.28317822	0.093936569	0.17796451	0.28402222	0.27299432	0.20160358	0.22428516	0.057775963	0.1390943	0.4405575	0.056598904	0.11845525
8416	84.15	-0.0096570568	0.64410309	0.15131561	-0.12256285	0.63157495	0.20401913	-0.22818018	0.62898602	0.014275202	-0.10960432	0.64743213	-0.18543774	-0.00034943935	0.6440332	-0.1328149	-0.017963211	1.040417	-0.0017120383	-0.066636406	1.101785	0.17143236	-0.059003742	1.0992899	-0.15507748	0.005468389	0.96543799	0.0062079926	-0.011633743	1.027554	-0.062733173	0.33115497	0.47239368	0.074121544	0.31843347	0.45382159	0.19184584	0.14919051	0.5801095	0.11241335	0.29444391	0.10669515	0.097153679	0.28321915	0.093933701	0.17792938	0.28407779	0.27304321	0.20146474	0.22428566	0.057776264	0.13909119	0.44056235	0.056596676	0.11843729
